<?xml version="1.0" encoding="utf-8"?>
<!-- Generator: Adobe Illustrator 25.2.2, SVG Export Plug-In . SVG Version: 6.00 Build 0)  -->
<svg version="1.1" id="Layer_1" xmlns="http://www.w3.org/2000/svg" xmlns:xlink="http://www.w3.org/1999/xlink" x="0px" y="0px"
	 viewBox="0 0 368.4 84.96" style="enable-background:new 0 0 368.4 84.96;" xml:space="preserve">
<style type="text/css">
	.st0{fill:#FFFFFF;}
</style>
<g>
	<g>
		<path class="st0" d="M0,84.96C0,56.67,0,28.34,0,0c122.79,0,245.58,0,368.4,0c0,28.3,0,56.61,0,84.96
			C245.62,84.96,122.81,84.96,0,84.96z M15.38,54.6c-0.06,0.38-0.06,0.53-0.11,0.68c-1.22,3.54-2.4,7.08-3.69,10.59
			c-0.28,0.76-0.94,1.41-1.48,2.06c-0.48,0.58-0.45,1.04,0.23,1.32c1.45,0.6,2.94,0.6,4.4,0c0.24-0.1,0.49-0.41,0.56-0.67
			c1.25-4.36,2.48-8.72,3.69-13.09c0.18-0.64,0.52-0.9,1.2-0.88c1.36,0.04,2.72,0.06,4.08-0.01c0.87-0.04,1.28,0.25,1.48,1.11
			c0.38,1.66,0.94,3.28,1.33,4.95c0.63,2.7,1.18,5.42,1.78,8.12c0.05,0.23,0.25,0.55,0.44,0.6c1.44,0.37,2.9,0.54,4.28-0.19
			c0.62-0.32,0.54-0.73,0.11-1.25c-0.51-0.62-1.02-1.3-1.29-2.04c-0.41-1.16-0.63-2.38-0.92-3.58c-0.6-2.5-1.2-5.01-1.84-7.7
			c0.73,0,1.28,0,1.83,0c2.03-0.01,2.46-0.65,1.68-2.49c-1.25-2.98-2.62-5.91-3.71-8.95c-0.52-1.45-0.55-3.09-0.74-4.66
			c-0.03-0.24,0.26-0.72,0.44-0.74c0.29-0.04,0.71,0.13,0.92,0.36c0.66,0.69,1.24,1.46,1.87,2.18c1.33,1.51,2.76,2.94,3.98,4.54
			c0.63,0.83,1.3,1.23,2.29,1.22c0.96-0.01,1.54-0.53,1.91-1.37c0.09-0.21,0.19-0.47,0.36-0.59c2.31-1.58,4.24-3.52,5.92-5.75
			c0.28-0.37,0.97-0.84,1.21-0.73c0.41,0.19,0.73,0.79,0.87,1.27c0.49,1.76,0.9,3.54,1.31,5.32c0.06,0.28,0.05,0.63-0.06,0.89
			c-1.03,2.45-2.23,4.83-3.08,7.34c-0.52,1.52-2.2,2.87-1.06,4.77c0.03,0.05-0.03,0.15-0.05,0.23c-0.6,2.43-1.19,4.86-1.79,7.28
			c-0.24,0.99-0.57,1.86-1.78,2.13c-0.39,0.09-0.96,0.71-0.94,1.05c0.03,0.44,0.52,1.12,0.91,1.2c1.3,0.28,2.69,0.61,3.97,0.41
			c2.01-0.32,2.31-1.39,1.09-2.79c1.09-2.8,2.15-5.59,3.28-8.35c0.21-0.51,0.64-0.96,1.06-1.34c0.62-0.57,1.24-1.06,0.66-2.01
			c-0.09-0.15-0.16-0.42-0.09-0.56c0.8-1.54,1.54-3.13,2.49-4.58c0.56-0.85,1.52-0.79,2.1,0.06c0.79,1.17,1.43,2.45,2.11,3.7
			c0.31,0.56,0.44,1.08,0.06,1.76c-0.19,0.34,0.18,1.07,0.43,1.55c0.39,0.74,1.03,1.37,1.34,2.14c1,2.5,1.91,5.05,2.84,7.58
			c0.07,0.2,0.13,0.49,0.04,0.67c-0.48,0.96,0.07,1.62,0.82,1.76c1.45,0.28,2.96,0.42,4.42,0.34c0.5-0.03,0.96-0.89,1.44-1.37
			c-0.47-0.44-0.95-0.88-1.42-1.31c-0.03-0.03-0.08-0.02-0.11-0.05c-0.46-0.44-1.17-0.8-1.33-1.33c-0.71-2.24-1.26-4.52-1.85-6.79
			c-0.19-0.75-0.44-1.49,0.12-2.27c0.18-0.24-0.02-0.83-0.16-1.21c-0.23-0.62-0.59-1.2-0.82-1.82c-1.01-2.72-1.99-5.44-2.98-8.17
			c-0.06-0.18-0.09-0.39-0.06-0.58c0.36-2,0.71-4,1.11-5.99c0.06-0.31,0.33-0.73,0.58-0.8c0.25-0.07,0.72,0.17,0.88,0.41
			c0.5,0.78,0.89,1.63,1.35,2.44c0.15,0.26,0.36,0.5,0.58,0.71c1.27,1.28,2.67,2.47,3.8,3.86c0.93,1.14,2.51,1.71,3.49,0.63
			c1.02-1.12,2.4-1.75,3.41-2.86c1.18-1.3,2.46-2.51,3.75-3.7c0.37-0.34,0.94-0.45,1.42-0.66c0.17,0.5,0.53,1.02,0.47,1.49
			c-0.36,2.75-0.78,5.49-1.25,8.22c-0.39,2.24-0.25,2.56,1.8,3.35c-0.1,0.25-0.18,0.51-0.29,0.76c-1.71,3.9-3.45,7.79-5.12,11.71
			c-0.25,0.6-0.36,1.43-0.15,2c0.34,0.93,0.04,1.42-0.64,1.92c-0.29,0.21-0.5,0.53-0.74,0.81c0.37,0.26,0.71,0.67,1.1,0.74
			c0.74,0.12,1.51,0.05,2.27,0.04c1.36-0.02,1.77-0.54,1.85-1.9c0.04-0.69,0.38-1.38,0.65-2.04c0.25-0.63,0.64-1.2,0.88-1.83
			c1.26-3.27,2.47-6.56,3.74-9.83c0.28-0.74,0.62-1.48,1.08-2.11c0.53-0.74,1.47-0.7,2.03,0.01c0.29,0.37,0.53,0.81,0.69,1.25
			c0.7,1.95,1.36,3.91,2.06,5.86c0.75,2.1,1.42,4.23,2.34,6.26c0.42,0.92,0.9,1.65,0.6,2.75c-0.22,0.84,0.36,1.48,1.23,1.56
			c0.91,0.09,1.85,0.1,2.75-0.02c0.39-0.05,0.73-0.49,1.09-0.75c-0.25-0.27-0.55-0.5-0.73-0.81c-0.33-0.53-0.95-1.47-0.82-1.59
			c1.03-1,0.39-1.97,0.05-2.88c-1.23-3.24-2.54-6.45-3.82-9.67c-0.3-0.76-0.59-1.52-0.89-2.31c2.26-0.37,2.63-0.94,2.07-3.01
			c-0.4-1.5-0.93-2.97-1.22-4.5c-0.32-1.71-0.46-3.46-0.6-5.19c-0.03-0.32,0.31-0.67,0.48-1.01c0.33,0.17,0.74,0.27,0.98,0.53
			c2.1,2.29,4.13,4.66,6.3,6.88c0.45,0.46,1.47,0.69,2.12,0.55c0.53-0.11,1.13-0.88,1.29-1.47c0.24-0.87-0.39-1.48-1.22-1.8
			c-0.21-0.08-0.41-0.19-0.7-0.33c0.34-1.3-0.29-2.22-1.09-3.13c-1.9-2.16-3.76-4.35-5.62-6.54c-1.08-1.26-2.44-1.92-4.09-1.93
			c-2.72-0.02-5.44-0.02-8.16,0c-1.45,0.01-2.75,0.5-3.81,1.5c-2.29,2.17-4.59,4.33-6.84,6.54c-1.02,1-2.54,1.88-1.33,3.74
			c-1.24-0.06-2.76-1.75-2.61-2.8c0.14-0.99-0.26-1.47-1.19-1.73c-0.46-0.13-0.94-0.4-1.25-0.75c-0.85-0.95-1.62-1.97-2.4-2.99
			c-0.17-0.23-0.34-0.56-0.32-0.83c0.11-1.57-0.42-2.28-2-2.36c-3.02-0.15-6.05-0.32-9.07-0.31c-2.14,0.01-4.28,0.25-6.4,0.49
			c-1.37,0.16-1.73,0.71-1.73,2.07c0,0.31-0.11,0.7-0.31,0.93c-0.69,0.82-1.41,1.64-2.2,2.37c-0.44,0.4-1.02,0.68-1.58,0.88
			c-0.77,0.27-1.23,0.65-1.18,1.54c0.05,0.82-1.51,3.03-2.42,3.4c0.44-1.4-0.15-2.4-1.03-3.37c-1.82-2.01-3.62-4.05-5.35-6.14
			c-1.33-1.6-3.01-2.31-5.03-2.32c-2.32-0.02-4.65-0.16-6.95,0.05c-1.42,0.13-3.09,0.44-4.11,1.3c-2.99,2.51-5.73,5.32-8.52,8.06
			c-0.38,0.37-0.46,1.05-0.74,1.75c0.04-0.01-0.16,0-0.35,0.06c-1.14,0.36-1.55,1.11-1.21,2.46c0.25,0.99,1.14,1.32,1.97,1.07
			c1.06-0.32,2.18-0.75,3.02-1.45c1.84-1.53,3.49-3.28,5.27-4.89c0.3-0.27,0.87-0.47,1.24-0.38c0.22,0.05,0.47,0.74,0.42,1.1
			c-0.19,1.16-0.34,2.38-0.81,3.44c-1.44,3.19-3.05,6.31-4.55,9.48c-0.64,1.35-0.18,2.02,1.33,2.05
			C13.41,54.62,14.33,54.6,15.38,54.6z M233.92,34.99c0.09,0.01,0.19,0.03,0.28,0.04c0.04,0.53,0.1,1.06,0.1,1.59
			c0.01,10.3,0,20.59,0.01,30.89c0,0.4-0.07,0.82,0.04,1.19c0.08,0.26,0.4,0.45,0.62,0.67c0.17-0.21,0.41-0.4,0.49-0.64
			c0.09-0.25,0.02-0.55,0.02-0.83c0-6.58,0-13.17,0-19.75c0-5.15,0.01-10.3-0.02-15.44c0-0.37-0.25-0.95-0.54-1.07
			c-0.58-0.25-1.06,0.08-1.26,0.73c-0.06,0.19-0.16,0.37-0.24,0.55c-4.92,11.07-9.85,22.13-14.77,33.19
			c-0.18,0.41-0.41,0.8-0.71,1.39c-0.31-0.66-0.52-1.08-0.71-1.52c-4.93-11.11-9.87-22.21-14.76-33.33
			c-0.4-0.91-0.98-1.33-1.81-0.99c-0.32,0.13-0.52,0.94-0.52,1.44c-0.03,11.61-0.02,23.23-0.02,34.84c0,0.43,0,0.86,0,1.36
			c0.48,0,0.84,0,1.37,0c0-11.7,0-23.3,0-34.91c0.41,0.3,0.6,0.64,0.76,0.99c3.45,7.71,6.89,15.43,10.33,23.14
			c1.49,3.35,2.98,6.7,4.5,10.03c0.15,0.34,0.59,0.81,0.84,0.78c0.36-0.04,0.68-0.49,1-0.78c0.08-0.07,0.1-0.22,0.15-0.32
			c4.74-10.62,9.48-21.25,14.23-31.87C233.49,35.9,233.71,35.45,233.92,34.99z M15.46,21.93c0.15,0.07,0.29,0.2,0.43,0.2
			c1.06,0.03,1.43,0.48,1.45,1.61c0.03,1.66,0.72,3.16,1.81,4.45c1.87,2.21,4.97,2.62,7.19,0.9c1.85-1.43,2.69-3.41,2.87-5.7
			c0.03-0.38,0.04-0.77,0.06-1.15c0.5,1.28,0.7,2.61,1.28,3.75c0.34,0.67,1.22,1.34,1.95,1.47c1.63,0.29,2.97-0.62,4.43-1.63
			c-2.95-0.28-3.65-1.09-3.56-3.88c0.02-0.64,0.09-1.27,0.18-1.9c0.19-1.46-0.48-2.48-1.67-3.18c-1.56-0.92-3.16-1.01-4.7-0.01
			c-2.8-2.48-7.34-1.94-9.12,0.89C17.22,19.12,16.36,20.48,15.46,21.93z M174.18,66.62c-0.12,0.05-0.23,0.1-0.35,0.14
			c-0.25-0.33-0.51-0.65-0.75-0.99c-7.7-11.12-15.39-22.24-23.07-33.37c-0.4-0.58-0.86-1.09-1.53-0.73
			c-0.29,0.16-0.41,0.86-0.41,1.31c-0.02,11.69-0.02,23.38-0.02,35.07c0,0.32,0,0.64,0.03,0.96c0.01,0.11,0.09,0.21,0.17,0.38
			c0.33-0.03,0.67-0.05,1.18-0.1c0-11.75,0-23.43,0-35.11c0.5,0.31,0.76,0.66,1,1.02c7.68,11.13,15.37,22.26,23.03,33.4
			c0.48,0.69,0.95,1.01,1.83,0.6c0.02-0.42,0.06-0.85,0.06-1.29c0-11.61,0-23.22,0-34.83c0-0.32,0.06-0.67-0.06-0.95
			c-0.1-0.22-0.4-0.44-0.64-0.49c-0.12-0.02-0.41,0.31-0.46,0.52c-0.08,0.34-0.03,0.71-0.03,1.07c0,10.61,0,21.23,0,31.84
			C174.18,65.6,174.18,66.11,174.18,66.62z M96.91,22.22c-1.32-1.65-2.56-3.29-3.9-4.85c-2.27-2.63-6.06-2.76-8.42-0.26
			c-2.02,2.14-2.87,4.65-2.11,7.63c0.85,3.3,3.21,5.4,6.25,5.39c2.91-0.01,5.35-2.18,6.08-5.44c0.15-0.69,0.2-1.4,0.3-2.09
			C95.77,22.47,96.37,22.34,96.91,22.22z M335.62,59.09c-0.61-0.23-0.97-0.14-0.97,0.64c0.02,3.24,1.15,5.91,3.94,7.74
			c2.18,1.43,4.59,2.23,7.16,2.5c4.26,0.45,8.34,0,12.03-2.49c4.91-3.31,4.93-11.22-0.5-13.82c-2.97-1.42-6.09-2.54-9.15-3.79
			c-2.54-1.04-5.16-1.93-7.59-3.16c-2.27-1.15-3.53-3.19-3.59-5.82c-0.08-3.7,2.09-5.91,5.15-7.37c2.74-1.3,5.68-1.46,8.67-1.03
			c4.74,0.69,8.26,4.2,8.87,8.87c0.04,0.27,0.33,0.51,0.51,0.76c0.19-0.28,0.54-0.56,0.54-0.84c-0.01-2.76-0.92-5.15-2.99-7.04
			c-2.5-2.27-5.53-3.06-8.82-3.13c-3.77-0.09-7.28,0.62-10.3,3.1c-4.08,3.36-4.01,10.82,0.94,13.37c2.29,1.18,4.71,2.12,7.1,3.12
			c3.23,1.35,6.63,2.37,9.68,4.03c5.06,2.77,5.13,8.57,0.39,11.87c-4.85,3.37-13.58,2.98-18.14-0.81c-1.34-1.11-2.18-2.53-2.56-4.22
			C335.82,60.77,335.75,59.94,335.62,59.09z M141.52,69.26c-0.14-0.43-0.24-0.81-0.38-1.18c-4.42-11.78-8.84-23.55-13.26-35.33
			c-0.24-0.64-0.39-1.24-1.33-1.22c-0.89,0.02-1.02,0.62-1.23,1.21c-4.41,11.78-8.82,23.56-13.23,35.34
			c-0.14,0.39-0.24,0.79-0.36,1.18c0.96,0.34,1.35-0.04,1.63-0.81c1.13-3.1,2.32-6.19,3.44-9.3c0.28-0.79,0.67-1.09,1.55-1.09
			c5.47,0.04,10.95,0.04,16.43,0c0.89-0.01,1.34,0.23,1.65,1.11c1.1,3.11,2.32,6.19,3.45,9.29
			C140.17,69.26,140.56,69.6,141.52,69.26z M272.23,69.25c-0.12-0.38-0.21-0.76-0.34-1.13c-4.42-11.78-8.84-23.55-13.26-35.33
			c-0.23-0.62-0.35-1.26-1.31-1.25c-0.96,0.01-1.07,0.67-1.3,1.28c-4.22,11.26-8.43,22.52-12.65,33.78
			c-0.33,0.88-0.63,1.77-0.96,2.67c1.03,0.35,1.41-0.09,1.7-0.88c1.15-3.14,2.36-6.26,3.5-9.4c0.24-0.67,0.59-0.9,1.31-0.9
			c5.59,0.03,11.19,0.03,16.79,0c0.75,0,1.12,0.22,1.38,0.96c1.13,3.15,2.36,6.25,3.5,9.4C270.9,69.28,271.3,69.63,272.23,69.25z
			 M331,69.25c-0.11-0.38-0.2-0.76-0.34-1.13c-4.43-11.81-8.87-23.63-13.3-35.44c-0.23-0.62-0.39-1.15-1.26-1.15
			c-0.88,0-1.04,0.56-1.27,1.16c-4.42,11.82-8.84,23.64-13.26,35.46c-0.13,0.36-0.23,0.73-0.34,1.1c1,0.38,1.37-0.08,1.66-0.87
			c1.15-3.14,2.36-6.26,3.5-9.4c0.24-0.66,0.58-0.91,1.3-0.91c5.59,0.03,11.19,0.03,16.79,0c0.75,0,1.12,0.21,1.39,0.95
			c1.13,3.15,2.37,6.25,3.5,9.4C329.67,69.27,330.06,69.63,331,69.25z M59.38,18.23c0.39-0.27,0.75-0.5,1.07-0.76
			c0.24-0.2,0.43-0.46,0.65-0.69c-0.22-0.19-0.5-0.56-0.66-0.52c-0.26,0.07-0.6,0.38-0.66,0.64c-0.23,0.99-0.65,1.13-1.51,0.61
			c-1.71-1.02-3.5-1.03-5.23-0.07c-0.85,0.47-1.38,0.56-1.61-0.58c-0.05-0.24-0.48-0.46-0.77-0.54c-0.13-0.03-0.54,0.41-0.51,0.48
			c0.13,0.27,0.35,0.57,0.61,0.68c0.86,0.37,1.1,0.75,0.43,1.58c-1.46,1.78-3.29,3.53-1.28,6.06c0.07,0.08,0.04,0.23,0.07,0.35
			c0.64,2.62,2.92,4.6,5.39,4.68c2.54,0.08,4.87-1.66,5.73-4.25c0.25-0.75,0.69-1.46,0.78-2.23c0.09-0.76,0.04-1.66-0.3-2.32
			C61.01,20.26,60.17,19.32,59.38,18.23z M177.64,28.84c1.25,0.94,2.09,0.88,2.37-0.49c0.35-1.68,0.18-3.46,0.34-5.19
			c0.08-0.83,0.28-1.69,0.66-2.43c0.42-0.81,1.12-0.2,1.68-0.03c1.56,0.49,3.09,1.04,4.66,1.51c0.42,0.12,0.94,0.13,1.35,0
			c2.01-0.63,4.01-1.31,6.01-1.99c1.09-0.37,2.17-0.78,3.45-1.25c-0.42-0.26-0.58-0.4-0.76-0.46c-2.98-1.01-5.96-2.03-8.95-3
			c-0.34-0.11-0.78-0.06-1.13,0.05c-2.88,0.94-5.75,1.91-8.61,2.88c-0.26,0.09-0.49,0.27-0.93,0.51c1.02,0.39,1.79,0.69,2.52,0.96
			c-0.48,1.28-0.96,2.51-1.39,3.76c-0.08,0.23,0.06,0.52,0.08,0.79c0.04,0.52,0.23,1.09,0.07,1.53
			C178.7,26.97,178.15,27.85,177.64,28.84z M271.74,32.73c4.28,0,8.51,0.05,12.74-0.03c1.22-0.02,1.54,0.33,1.53,1.53
			c-0.05,11.21-0.03,22.42-0.03,33.63c0,0.47,0,0.94,0,1.52c0.52-0.04,0.88-0.06,1.36-0.1c0-12.23,0-24.34,0-36.56
			c1.36,0,2.59,0,3.82,0c2.84,0,5.67,0.01,8.51-0.01c0.28,0,0.59-0.14,0.8-0.32c0.09-0.08,0.01-0.57-0.1-0.62
			c-0.31-0.14-0.68-0.2-1.03-0.2c-3.6-0.01-7.19-0.01-10.79-0.01c-5.27,0-10.55,0-15.82,0C272.07,31.56,271.36,31.53,271.74,32.73z
			 M181.9,22.02c-0.12,0.19-0.19,0.25-0.19,0.32c-0.02,0.96-0.03,1.91-0.03,2.87c0,1.77,0.3,2.2,2,2.73
			c2.49,0.77,5.04,0.72,7.58,0.35c0.89-0.13,1.78-0.45,2.59-0.84c0.41-0.2,0.88-0.73,0.91-1.14c0.11-1.45,0.04-2.92,0.04-4.51
			c-1.9,0.64-3.66,1.16-5.35,1.83c-0.96,0.38-1.81,0.38-2.76,0.03C185.1,23.06,183.48,22.55,181.9,22.02z M188.23,50.57
			c0-5.91,0.01-11.81-0.02-17.72c0-0.41-0.31-1.17-0.51-1.18c-0.9-0.05-0.54,0.74-0.64,1.23c-0.02,0.08,0,0.16,0,0.24
			c0,11.57,0,23.14,0,34.72c0,0.36-0.04,0.74,0.06,1.07c0.06,0.19,0.37,0.42,0.57,0.42c0.18,0,0.45-0.27,0.51-0.47
			c0.09-0.29,0.03-0.63,0.03-0.95C188.23,62.14,188.23,56.35,188.23,50.57z"/>
		<path d="M15.38,54.6c-1.05,0-1.96,0.02-2.87,0c-1.51-0.03-1.97-0.7-1.33-2.05c1.5-3.17,3.11-6.29,4.55-9.48
			c0.48-1.06,0.63-2.27,0.81-3.44c0.06-0.36-0.19-1.05-0.42-1.1c-0.37-0.08-0.94,0.11-1.24,0.38c-1.78,1.61-3.43,3.35-5.27,4.89
			c-0.83,0.7-1.95,1.13-3.02,1.45c-0.84,0.25-1.72-0.08-1.97-1.07c-0.34-1.35,0.07-2.1,1.21-2.46c0.18-0.06,0.39-0.06,0.35-0.06
			c0.28-0.7,0.36-1.37,0.74-1.75c2.79-2.74,5.53-5.55,8.52-8.06c1.03-0.86,2.7-1.17,4.11-1.3c2.3-0.21,4.63-0.07,6.95-0.05
			c2.02,0.02,3.71,0.72,5.03,2.32c1.73,2.09,3.53,4.13,5.35,6.14c0.88,0.97,1.47,1.97,1.03,3.37c0.9-0.37,2.47-2.58,2.42-3.4
			c-0.06-0.89,0.41-1.27,1.18-1.54c0.57-0.2,1.15-0.48,1.58-0.88c0.79-0.72,1.51-1.54,2.2-2.37c0.2-0.23,0.31-0.62,0.31-0.93
			c-0.01-1.36,0.35-1.92,1.73-2.07c2.13-0.24,4.27-0.49,6.4-0.49c3.02-0.01,6.05,0.17,9.07,0.31c1.58,0.08,2.11,0.78,2,2.36
			c-0.02,0.27,0.15,0.6,0.32,0.83c0.77,1.02,1.55,2.03,2.4,2.99c0.31,0.35,0.79,0.63,1.25,0.75c0.93,0.26,1.33,0.74,1.19,1.73
			c-0.15,1.05,1.37,2.75,2.61,2.8c-1.21-1.87,0.31-2.74,1.33-3.74c2.24-2.22,4.55-4.37,6.84-6.54c1.06-1.01,2.35-1.49,3.81-1.5
			c2.72-0.02,5.44-0.02,8.16,0c1.65,0.01,3.01,0.67,4.09,1.93c1.87,2.18,3.73,4.38,5.62,6.54c0.8,0.91,1.44,1.83,1.09,3.13
			c0.29,0.13,0.49,0.24,0.7,0.33c0.83,0.33,1.46,0.94,1.22,1.8c-0.16,0.59-0.77,1.36-1.29,1.47c-0.65,0.14-1.67-0.09-2.12-0.55
			c-2.17-2.22-4.2-4.59-6.3-6.88c-0.24-0.26-0.65-0.36-0.98-0.53c-0.17,0.34-0.5,0.69-0.48,1.01c0.14,1.74,0.28,3.48,0.6,5.19
			c0.28,1.52,0.81,3,1.22,4.5c0.56,2.08,0.19,2.64-2.07,3.01c0.3,0.79,0.59,1.55,0.89,2.31c1.28,3.22,2.59,6.43,3.82,9.67
			c0.35,0.91,0.98,1.88-0.05,2.88c-0.13,0.13,0.49,1.07,0.82,1.59c0.19,0.3,0.49,0.54,0.73,0.81c-0.36,0.26-0.7,0.71-1.09,0.75
			c-0.91,0.11-1.84,0.11-2.75,0.02c-0.87-0.09-1.46-0.73-1.23-1.56c0.29-1.09-0.19-1.83-0.6-2.75c-0.92-2.02-1.59-4.16-2.34-6.26
			c-0.7-1.95-1.35-3.91-2.06-5.86c-0.16-0.44-0.4-0.88-0.69-1.25c-0.55-0.72-1.5-0.75-2.03-0.01c-0.46,0.64-0.8,1.38-1.08,2.11
			c-1.26,3.27-2.48,6.56-3.74,9.83c-0.24,0.63-0.63,1.2-0.88,1.83c-0.27,0.66-0.61,1.35-0.65,2.04c-0.08,1.36-0.49,1.88-1.85,1.9
			c-0.76,0.01-1.53,0.08-2.27-0.04c-0.4-0.06-0.74-0.48-1.1-0.74c0.24-0.27,0.45-0.59,0.74-0.81c0.68-0.5,0.98-0.99,0.64-1.92
			c-0.21-0.58-0.1-1.41,0.15-2c1.66-3.92,3.4-7.81,5.12-11.71c0.11-0.25,0.2-0.51,0.29-0.76c-2.06-0.78-2.19-1.11-1.8-3.35
			c0.47-2.73,0.89-5.47,1.25-8.22c0.06-0.47-0.3-0.99-0.47-1.49c-0.48,0.21-1.05,0.33-1.42,0.66c-1.3,1.19-2.58,2.4-3.75,3.7
			c-1.01,1.12-2.39,1.74-3.41,2.86c-0.98,1.07-2.56,0.51-3.49-0.63c-1.14-1.39-2.53-2.58-3.8-3.86c-0.21-0.22-0.43-0.45-0.58-0.71
			c-0.46-0.81-0.85-1.66-1.35-2.44c-0.16-0.24-0.63-0.48-0.88-0.41c-0.25,0.07-0.52,0.49-0.58,0.8c-0.4,1.99-0.76,3.99-1.11,5.99
			c-0.03,0.18-0.01,0.4,0.06,0.58c0.98,2.73,1.97,5.45,2.98,8.17c0.23,0.62,0.59,1.2,0.82,1.82c0.14,0.39,0.34,0.97,0.16,1.21
			c-0.56,0.77-0.32,1.51-0.12,2.27c0.59,2.27,1.14,4.56,1.85,6.79c0.17,0.53,0.87,0.89,1.33,1.33c0.03,0.03,0.08,0.02,0.11,0.05
			c0.48,0.44,0.95,0.88,1.42,1.31c-0.48,0.48-0.94,1.34-1.44,1.37c-1.47,0.08-2.98-0.06-4.42-0.34c-0.74-0.15-1.3-0.8-0.82-1.76
			c0.09-0.17,0.03-0.46-0.04-0.67c-0.93-2.53-1.84-5.08-2.84-7.58c-0.31-0.77-0.95-1.4-1.34-2.14c-0.25-0.48-0.62-1.21-0.43-1.55
			c0.38-0.69,0.25-1.2-0.06-1.76c-0.68-1.25-1.32-2.52-2.11-3.7c-0.58-0.85-1.54-0.91-2.1-0.06c-0.95,1.45-1.69,3.04-2.49,4.58
			c-0.07,0.14,0,0.4,0.09,0.56c0.58,0.94-0.04,1.44-0.66,2.01c-0.42,0.38-0.85,0.83-1.06,1.34c-1.13,2.76-2.19,5.55-3.28,8.35
			c1.22,1.4,0.93,2.46-1.09,2.79c-1.27,0.21-2.67-0.13-3.97-0.41c-0.4-0.08-0.88-0.77-0.91-1.2c-0.02-0.34,0.54-0.97,0.94-1.05
			c1.21-0.27,1.53-1.14,1.78-2.13c0.6-2.43,1.19-4.85,1.79-7.28c0.02-0.08,0.08-0.18,0.05-0.23c-1.14-1.91,0.54-3.25,1.06-4.77
			c0.85-2.51,2.05-4.89,3.08-7.34c0.11-0.26,0.12-0.61,0.06-0.89c-0.41-1.78-0.82-3.56-1.31-5.32c-0.14-0.49-0.46-1.08-0.87-1.27
			c-0.24-0.12-0.93,0.36-1.21,0.73c-1.67,2.23-3.61,4.17-5.92,5.75c-0.18,0.12-0.27,0.38-0.36,0.59c-0.37,0.84-0.95,1.36-1.91,1.37
			c-0.99,0.01-1.65-0.39-2.29-1.22c-1.22-1.59-2.65-3.03-3.98-4.54c-0.63-0.72-1.21-1.49-1.87-2.18c-0.21-0.22-0.63-0.39-0.92-0.36
			c-0.18,0.02-0.47,0.5-0.44,0.74c0.19,1.56,0.22,3.2,0.74,4.66c1.09,3.03,2.45,5.97,3.71,8.95c0.77,1.84,0.35,2.48-1.68,2.49
			c-0.55,0-1.1,0-1.83,0c0.64,2.69,1.24,5.2,1.84,7.7c0.29,1.2,0.5,2.43,0.92,3.58c0.27,0.74,0.78,1.42,1.29,2.04
			c0.43,0.53,0.5,0.93-0.11,1.25c-1.39,0.72-2.84,0.56-4.28,0.19c-0.19-0.05-0.39-0.37-0.44-0.6c-0.61-2.7-1.15-5.42-1.78-8.12
			c-0.39-1.66-0.94-3.28-1.33-4.95c-0.2-0.87-0.61-1.16-1.48-1.11c-1.36,0.07-2.72,0.05-4.08,0.01c-0.68-0.02-1.02,0.24-1.2,0.88
			c-1.22,4.37-2.44,8.73-3.69,13.09c-0.08,0.26-0.32,0.57-0.56,0.67c-1.46,0.61-2.94,0.61-4.4,0c-0.68-0.28-0.71-0.74-0.23-1.32
			c0.54-0.65,1.2-1.29,1.48-2.06c1.29-3.51,2.48-7.06,3.69-10.59C15.32,55.14,15.32,54.98,15.38,54.6z"/>
		<path d="M233.92,34.99c-0.21,0.45-0.44,0.91-0.64,1.36c-4.74,10.62-9.49,21.24-14.23,31.87c-0.05,0.11-0.07,0.25-0.15,0.32
			c-0.32,0.29-0.64,0.74-1,0.78c-0.25,0.03-0.69-0.44-0.84-0.78c-1.52-3.33-3.01-6.69-4.5-10.03c-3.44-7.71-6.88-15.43-10.33-23.14
			c-0.16-0.35-0.35-0.69-0.76-0.99c0,11.61,0,23.21,0,34.91c-0.52,0-0.89,0-1.37,0c0-0.5,0-0.93,0-1.36
			c0-11.61-0.01-23.23,0.02-34.84c0-0.5,0.2-1.31,0.52-1.44c0.83-0.34,1.41,0.08,1.81,0.99c4.89,11.12,9.83,22.23,14.76,33.33
			c0.19,0.43,0.4,0.86,0.71,1.52c0.3-0.59,0.53-0.98,0.71-1.39c4.93-11.06,9.85-22.13,14.77-33.19c0.08-0.18,0.18-0.36,0.24-0.55
			c0.19-0.65,0.67-0.98,1.26-0.73c0.29,0.12,0.54,0.7,0.54,1.07c0.04,5.15,0.02,10.3,0.02,15.44c0,6.58,0,13.17,0,19.75
			c0,0.28,0.06,0.58-0.02,0.83c-0.08,0.24-0.32,0.43-0.49,0.64c-0.21-0.22-0.54-0.41-0.62-0.67c-0.11-0.37-0.04-0.79-0.04-1.19
			c0-10.3,0-20.59-0.01-30.89c0-0.53-0.07-1.06-0.1-1.59C234.11,35.02,234.02,35.01,233.92,34.99z"/>
		<path d="M15.46,21.93c0.9-1.45,1.76-2.81,2.61-4.18c1.78-2.84,6.31-3.37,9.12-0.89c1.54-1,3.15-0.91,4.7,0.01
			c1.19,0.7,1.86,1.72,1.67,3.18c-0.08,0.63-0.16,1.27-0.18,1.9c-0.09,2.79,0.61,3.59,3.56,3.88c-1.46,1.01-2.8,1.92-4.43,1.63
			c-0.73-0.13-1.61-0.8-1.95-1.47c-0.58-1.14-0.78-2.46-1.28-3.75c-0.02,0.38-0.03,0.77-0.06,1.15c-0.18,2.29-1.02,4.27-2.87,5.7
			c-2.22,1.72-5.33,1.31-7.19-0.9c-1.09-1.29-1.79-2.79-1.81-4.45c-0.02-1.13-0.39-1.58-1.45-1.61C15.75,22.13,15.61,22,15.46,21.93
			z"/>
		<path d="M174.18,66.62c0-0.51,0-1.02,0-1.53c0-10.61,0-21.23,0-31.84c0-0.36-0.05-0.73,0.03-1.07c0.05-0.21,0.34-0.55,0.46-0.52
			c0.25,0.05,0.55,0.26,0.64,0.49c0.12,0.27,0.06,0.63,0.06,0.95c0,11.61,0,23.22,0,34.83c0,0.43-0.04,0.86-0.06,1.29
			c-0.88,0.41-1.35,0.09-1.83-0.6c-7.66-11.14-15.35-22.27-23.03-33.4c-0.25-0.36-0.51-0.71-1-1.02c0,11.68,0,23.35,0,35.11
			c-0.51,0.04-0.85,0.07-1.18,0.1c-0.08-0.17-0.16-0.28-0.17-0.38c-0.03-0.32-0.03-0.64-0.03-0.96c0-11.69-0.01-23.38,0.02-35.07
			c0-0.45,0.12-1.15,0.41-1.31c0.67-0.36,1.13,0.15,1.53,0.73c7.68,11.13,15.38,22.25,23.07,33.37c0.24,0.34,0.5,0.66,0.75,0.99
			C173.95,66.72,174.06,66.67,174.18,66.62z"/>
		<path d="M96.91,22.22c-0.54,0.11-1.14,0.24-1.8,0.38c-0.1,0.69-0.15,1.4-0.3,2.09c-0.73,3.26-3.17,5.43-6.08,5.44
			c-3.04,0.01-5.41-2.09-6.25-5.39c-0.76-2.98,0.08-5.49,2.11-7.63c2.36-2.5,6.15-2.36,8.42,0.26
			C94.35,18.93,95.58,20.57,96.91,22.22z"/>
		<path d="M335.62,59.09c0.13,0.85,0.2,1.68,0.38,2.49c0.38,1.68,1.22,3.1,2.56,4.22c4.56,3.79,13.29,4.18,18.14,0.81
			c4.74-3.29,4.66-9.1-0.39-11.87c-3.05-1.67-6.46-2.68-9.68-4.03c-2.39-1-4.81-1.94-7.1-3.12c-4.95-2.55-5.02-10.01-0.94-13.37
			c3.02-2.48,6.53-3.19,10.3-3.1c3.28,0.08,6.32,0.86,8.82,3.13c2.07,1.89,2.98,4.28,2.99,7.04c0,0.28-0.35,0.56-0.54,0.84
			c-0.18-0.25-0.47-0.49-0.51-0.76c-0.61-4.67-4.12-8.18-8.87-8.87c-2.99-0.44-5.93-0.27-8.67,1.03c-3.06,1.45-5.24,3.67-5.15,7.37
			c0.06,2.62,1.32,4.66,3.59,5.82c2.44,1.24,5.06,2.12,7.59,3.16c3.05,1.25,6.17,2.37,9.15,3.79c5.43,2.6,5.41,10.5,0.5,13.82
			c-3.69,2.49-7.77,2.94-12.03,2.49c-2.57-0.27-4.98-1.07-7.16-2.5c-2.79-1.83-3.92-4.5-3.94-7.74
			C334.65,58.95,335.01,58.86,335.62,59.09z"/>
		<path d="M141.52,69.26c-0.96,0.34-1.35,0-1.63-0.78c-1.13-3.11-2.35-6.18-3.45-9.29c-0.31-0.87-0.75-1.12-1.65-1.11
			c-5.47,0.04-10.95,0.04-16.43,0c-0.88-0.01-1.27,0.3-1.55,1.09c-1.12,3.11-2.31,6.19-3.44,9.3c-0.28,0.77-0.67,1.15-1.63,0.81
			c0.12-0.39,0.21-0.79,0.36-1.18c4.41-11.78,8.81-23.56,13.23-35.34c0.22-0.58,0.34-1.18,1.23-1.21c0.94-0.02,1.09,0.58,1.33,1.22
			c4.42,11.78,8.84,23.55,13.26,35.33C141.28,68.45,141.38,68.83,141.52,69.26z M126.62,33c-3.03,8.11-5.92,15.87-8.85,23.71
			c5.99,0,11.77,0,17.72,0C132.53,48.81,129.63,41.05,126.62,33z"/>
		<path d="M272.23,69.25c-0.93,0.38-1.33,0.03-1.63-0.81c-1.14-3.14-2.37-6.25-3.5-9.4c-0.26-0.74-0.63-0.96-1.38-0.96
			c-5.59,0.03-11.19,0.03-16.79,0c-0.72,0-1.06,0.23-1.31,0.9c-1.15,3.14-2.36,6.26-3.5,9.4c-0.29,0.79-0.67,1.23-1.7,0.88
			c0.32-0.9,0.63-1.79,0.96-2.67c4.21-11.26,8.43-22.52,12.65-33.78c0.23-0.62,0.34-1.27,1.3-1.28c0.96-0.01,1.07,0.63,1.31,1.25
			c4.42,11.78,8.84,23.55,13.26,35.33C272.03,68.49,272.12,68.87,272.23,69.25z M257.34,33c-3.03,8.1-5.92,15.87-8.85,23.71
			c5.98,0,11.77,0,17.72,0C263.25,48.81,260.36,41.06,257.34,33z"/>
		<path d="M331,69.25c-0.94,0.38-1.33,0.02-1.63-0.82c-1.14-3.14-2.37-6.25-3.5-9.4c-0.27-0.74-0.64-0.96-1.39-0.95
			c-5.6,0.03-11.19,0.03-16.79,0c-0.72,0-1.06,0.24-1.3,0.91c-1.15,3.14-2.36,6.26-3.5,9.4c-0.29,0.79-0.66,1.25-1.66,0.87
			c0.11-0.37,0.21-0.74,0.34-1.1c4.42-11.82,8.84-23.64,13.26-35.46c0.23-0.6,0.39-1.16,1.27-1.16c0.87,0,1.03,0.53,1.26,1.15
			c4.43,11.82,8.87,23.63,13.3,35.44C330.8,68.49,330.89,68.87,331,69.25z M324.99,56.76c-2.95-7.91-5.86-15.69-8.88-23.76
			c-3.02,8.08-5.92,15.86-8.87,23.76C313.24,56.76,319.01,56.76,324.99,56.76z"/>
		<path d="M59.38,18.23c0.79,1.1,1.63,2.03,2.18,3.11c0.34,0.66,0.39,1.56,0.3,2.32c-0.09,0.76-0.53,1.48-0.78,2.23
			c-0.85,2.59-3.19,4.34-5.73,4.25c-2.47-0.08-4.75-2.07-5.39-4.68c-0.03-0.12,0-0.27-0.07-0.35c-2.01-2.53-0.18-4.28,1.28-6.06
			c0.68-0.83,0.43-1.22-0.43-1.58c-0.26-0.11-0.48-0.41-0.61-0.68c-0.03-0.07,0.38-0.51,0.51-0.48c0.29,0.08,0.72,0.31,0.77,0.54
			c0.24,1.15,0.76,1.06,1.61,0.58c1.73-0.97,3.52-0.96,5.23,0.07c0.87,0.52,1.28,0.38,1.51-0.61c0.06-0.26,0.4-0.58,0.66-0.64
			c0.17-0.04,0.44,0.33,0.66,0.52c-0.21,0.23-0.41,0.49-0.65,0.69C60.12,17.73,59.77,17.95,59.38,18.23z"/>
		<path d="M177.64,28.84c0.51-0.99,1.06-1.88,1.42-2.83c0.17-0.44-0.03-1.02-0.07-1.53c-0.02-0.27-0.16-0.56-0.08-0.79
			c0.43-1.25,0.91-2.47,1.39-3.76c-0.73-0.28-1.5-0.57-2.52-0.96c0.44-0.24,0.67-0.42,0.93-0.51c2.87-0.97,5.73-1.94,8.61-2.88
			c0.35-0.11,0.79-0.16,1.13-0.05c2.99,0.97,5.97,1.99,8.95,3c0.18,0.06,0.33,0.2,0.76,0.46c-1.28,0.47-2.36,0.88-3.45,1.25
			c-2,0.68-3.99,1.36-6.01,1.99c-0.41,0.13-0.93,0.13-1.35,0c-1.56-0.46-3.1-1.02-4.66-1.51c-0.56-0.17-1.26-0.78-1.68,0.03
			c-0.38,0.73-0.58,1.6-0.66,2.43c-0.16,1.73,0.01,3.51-0.34,5.19C179.73,29.72,178.89,29.78,177.64,28.84z"/>
		<path d="M271.74,32.73c-0.38-1.2,0.33-1.17,1-1.17c5.27,0,10.55,0,15.82,0c3.6,0,7.19,0,10.79,0.01c0.35,0,0.72,0.06,1.03,0.2
			c0.12,0.05,0.19,0.54,0.1,0.62c-0.21,0.18-0.53,0.32-0.8,0.32c-2.84,0.02-5.67,0.01-8.51,0.01c-1.23,0-2.46,0-3.82,0
			c0,12.22,0,24.32,0,36.56c-0.48,0.03-0.85,0.06-1.36,0.1c0-0.59,0-1.06,0-1.52c0-11.21-0.02-22.42,0.03-33.63
			c0.01-1.21-0.31-1.56-1.53-1.53C280.25,32.78,276.02,32.73,271.74,32.73z"/>
		<path d="M181.9,22.02c1.57,0.53,3.19,1.04,4.78,1.63c0.95,0.35,1.8,0.35,2.76-0.03c1.69-0.67,3.45-1.19,5.35-1.83
			c0,1.59,0.07,3.06-0.04,4.51c-0.03,0.41-0.5,0.94-0.91,1.14c-0.81,0.39-1.7,0.71-2.59,0.84c-2.54,0.37-5.09,0.42-7.58-0.35
			c-1.71-0.53-2.01-0.96-2-2.73c0-0.96,0.02-1.91,0.03-2.87C181.71,22.27,181.78,22.21,181.9,22.02z"/>
		<path d="M188.23,50.57c0,5.79,0,11.57,0,17.36c0,0.32,0.06,0.66-0.03,0.95c-0.06,0.2-0.33,0.46-0.51,0.47
			c-0.2,0-0.51-0.23-0.57-0.42c-0.1-0.33-0.06-0.71-0.06-1.07c0-11.57,0-23.14,0-34.72c0-0.08-0.01-0.16,0-0.24
			c0.1-0.49-0.26-1.28,0.64-1.23c0.2,0.01,0.51,0.77,0.51,1.18C188.24,38.76,188.23,44.66,188.23,50.57z"/>
		<path class="st0" d="M126.62,33c3.01,8.05,5.91,15.81,8.86,23.71c-5.94,0-11.73,0-17.72,0C120.69,48.87,123.59,41.11,126.62,33z"
			/>
		<path class="st0" d="M257.34,33c3.01,8.06,5.91,15.81,8.87,23.71c-5.95,0-11.73,0-17.72,0C251.42,48.87,254.32,41.1,257.34,33z"/>
		<path class="st0" d="M324.99,56.76c-5.98,0-11.75,0-17.75,0c2.95-7.9,5.85-15.68,8.87-23.76
			C319.13,41.07,322.04,48.85,324.99,56.76z"/>
	</g>
</g>
</svg>
